Coordinates
version=1
nRows=14
nColumns=28
inDegrees=yes

Units are S.I. units (second, meters, Newtons, ...)
Angles are in degrees.

endheader
time	pelvis_tilt	pelvis_list	pelvis_rotation	pelvis_tx	pelvis_ty	pelvis_tz	hip_flexion_r	hip_adduction_r	hip_rotation_r	knee_angle_r	ankle_angle_r	subtalar_angle_r	mtp_angle_r	hip_flexion_l	hip_adduction_l	hip_rotation_l	knee_angle_l	socket_flexion	socket_adduction	socket_rotation	socket_tx	socket_ty	socket_tz	foot_flex	lumbar_extension	lumbar_bending	lumbar_rotation
      0.93750000	      3.92795211	     -4.77679172	     -1.54506640	      0.41881412	      1.03664644	      0.30468848	     -0.55475123	      9.53542766	     -1.75219125	    -13.72633513	      4.42429831	    -13.87258082	      8.50035026	     11.89933218	     -9.50651157	     -1.74690806	    -69.25011394	     -9.53202363	     -1.80204465	     14.91106555	      0.00000000	      0.03164018	      0.00000000	     -0.37616781	    -11.42279191	      4.65643796	      4.07527639
      0.94166667	      3.88714685	     -4.59735859	     -1.79724933	      0.42343428	      1.03740692	      0.30518947	     -0.96753373	      9.32091562	     -1.65932807	    -13.42092213	      4.33547709	    -13.58031902	      8.62305640	     12.48960040	     -9.28331344	     -1.78528974	    -68.90885834	     -9.56641839	     -1.78363427	     14.88676758	      0.00000000	      0.03182190	      0.00000000	     -0.36429275	    -11.42386949	      4.38602836	      4.41485991
      0.94583333	      3.89958660	     -4.58324767	     -2.05380386	      0.42777039	      1.03805118	      0.30554098	     -1.28901352	      9.26002275	     -1.71973043	    -13.39357682	      4.34821545	    -13.55457061	      8.63410775	     13.02717541	     -9.23279870	     -1.77999561	    -68.58607113	     -9.64488258	     -1.77785260	     14.89216806	      0.00000000	      0.03172205	      0.00000000	     -0.33667038	    -11.55083106	      4.38010274	      4.44347870
      0.95000000	      3.82739945	     -4.30900797	     -2.22044864	      0.43263270	      1.03882530	      0.30596744	     -1.83790293	      8.96328618	     -1.47316766	    -12.75432340	      4.25238056	    -13.16528956	      8.75110776	     13.67651014	     -8.90333129	     -1.78111501	    -68.21363616	     -9.67031096	     -1.78183614	     14.87678842	      0.00000000	      0.03236783	      0.00000000	     -0.35421718	    -11.44247345	      4.00929114	      4.77968009
      0.95416667	      3.78878448	     -4.16825780	     -2.43896437	      0.43723653	      1.03944869	      0.30642724	     -2.26026723	      8.79097605	     -1.37027947	    -12.42193084	      4.20854419	    -12.93662601	      8.84555528	     14.23183640	     -8.71548369	     -1.76295452	    -67.76065645	     -9.71189959	     -1.76870174	     14.87369503	      0.00000000	      0.03242591	      0.00000000	     -0.36213144	    -11.43641303	      3.78181408	      5.00211214
      0.95833333	      3.74938050	     -4.03037836	     -2.68004406	      0.44181828	      1.04003662	      0.30684920	     -2.65520229	      8.60753091	     -1.28684413	    -12.13431457	      4.13425445	    -12.70634410	      8.96026138	     14.74592089	     -8.53010297	     -1.77005611	    -67.21477793	     -9.71840363	     -1.72659755	     14.82439945	      0.00000000	      0.03234169	      0.00000000	     -0.34528684	    -11.43711103	      3.57470823	      5.24709219
      0.96250000	      3.70947424	     -3.89645927	     -2.87936556	      0.44642388	      1.04058539	      0.30725696	     -3.07996546	      8.43925105	     -1.18012495	    -11.79191528	      4.10277520	    -12.49051774	      9.06206447	     15.27639735	     -8.34827822	     -1.74690574	    -66.67941845	     -9.74291718	     -1.71536289	     14.80322996	      0.00000000	      0.03234102	      0.00000000	     -0.34795157	    -11.42993100	      3.38364419	      5.44809876
      0.96666667	      3.72894006	     -3.89864862	     -3.09951617	      0.45060157	      1.04101556	      0.30754273	     -3.37937898	      8.38882920	     -1.23313160	    -11.79078993	      4.10513576	    -12.46811266	      9.07320577	     15.81551027	     -8.32317003	     -1.73877839	    -66.28815607	     -9.84674747	     -1.75512830	     14.78261359	      0.00000000	      0.03248701	      0.00000000	     -0.31234893	    -11.57127563	      3.37477393	      5.47360376
      0.97083333	      3.62884851	     -3.71630140	     -3.25339915	      0.45548181	      1.04147537	      0.30790443	     -3.87753515	      8.17761262	     -1.03056155	    -11.17873751	      4.04050324	    -12.14724370	      9.17618555	     16.36910826	     -8.09007806	     -1.70467357	    -65.64250344	     -9.83927099	     -1.75719644	     14.78487236	      0.00000000	      0.03256790	      0.00000000	     -0.33208518	    -11.43187147	      3.11099641	      5.72704298
      0.97500000	      3.64590939	     -3.72004181	     -3.45191254	      0.45963318	      1.04180327	      0.30820556	     -4.16616159	      8.13622827	     -1.07857127	    -11.18992634	      4.03671234	    -12.12567845	      9.18604699	     16.90511479	     -8.07504982	     -1.70018708	    -65.22423424	     -9.95624999	     -1.81474175	     14.75457386	      0.00000000	      0.03274155	      0.00000000	     -0.29284127	    -11.57867008	      3.10252939	      5.75294100
      0.97916667	      3.88585003	     -3.33069079	     -3.82495049	      0.46480897	      1.04289030	      0.30871414	     -5.00572387	      7.60408207	     -0.92253061	    -10.61531454	      3.68811906	    -11.50116727	     10.50882345	     16.34948591	     -7.43793607	     -1.54113254	    -63.04809520	     -9.34049930	     -1.26352721	     14.29304722	      0.00000000	      0.02941836	      0.00000000	     -0.31489581	    -11.79389542	      2.53132166	      6.43850847
      0.98333333	      3.81208065	     -3.29244340	     -3.94828339	      0.46930597	      1.04308020	      0.30897422	     -5.36517813	      7.53712479	     -0.86711089	    -10.30895222	      3.70191115	    -11.37128304	     10.57526153	     16.94981610	     -7.38695092	     -1.51080027	    -62.53526352	     -9.42927205	     -1.35258522	     14.32601986	      0.00000000	      0.02967747	      0.00000000	     -0.31746621	    -11.76290995	      2.46291063	      6.52617713
      0.98750000	      3.82696402	     -3.31084840	     -4.12929648	      0.47339478	      1.04325843	      0.30918795	     -5.64632100	      7.49748186	     -0.91340376	    -10.32088363	      3.70546345	    -11.35548766	     10.58188616	     17.49445050	     -7.38868768	     -1.49819793	    -62.10993195	     -9.57401244	     -1.43549015	     14.29514483	      0.00000000	      0.03006721	      0.00000000	     -0.27551387	    -11.90390202	      2.46153143	      6.54020044
      0.99166667	      3.67839834	     -3.25631785	     -4.19748277	      0.47819445	      1.04334585	      0.30941457	     -6.07802039	      7.43100524	     -0.77138905	     -9.72457660	      3.69032731	    -11.11906289	     10.65110423	     18.09867702	     -7.32856497	     -1.48010637	    -61.42173403	     -9.57376760	     -1.55765820	     14.39065266	      0.00000000	      0.03011252	      0.00000000	     -0.29692893	    -11.73868776	      2.38416820	      6.69109898
